<?xml version="1.0" encoding="utf-8"?>
<!-- Uploaded to: SVG Repo, www.svgrepo.com, Generator: SVG Repo Mixer Tools -->
<svg fill="#000000" height="800px" width="800px" version="1.1" id="Layer_1" xmlns="http://www.w3.org/2000/svg" xmlns:xlink="http://www.w3.org/1999/xlink" 
	 viewBox="0 0 128 128" xml:space="preserve">
<g>
	<circle cx="39.2" cy="17.9" r="12.6"/>
	<path d="M78.6,70.2l-21.2,0l-5.7-28.4c-3.4-14.8-24.2-10.4-22,4.1l6.6,33c1,5,5,9.3,11.3,9.3h27.1c0,0,0,21.2,0,30
		c0,9.5,13.3,9.5,13.3,0.2V79.7C88,75.1,84.8,70.2,78.6,70.2z"/>
	<path d="M64.7,90.6H46.9c-6.4,0-11.8-3.8-13.4-11l-5.8-28.2c-1.4-6.9-11.1-4.6-9.8,2.1L24,82.9c2.5,11,11.9,18.1,21.4,18.1h19.5
		C71.7,101,71.7,90.6,64.7,90.6z"/>
	<path d="M91.1,3.9c-11.2,0-20.3,9.1-20.3,20.3c0,11.2,9.1,20.3,20.3,20.3c11.2,0,20.3-9.1,20.3-20.3C111.4,13.1,102.3,3.9,91.1,3.9
		z M91.1,40.7c-9.1,0-16.5-7.4-16.5-16.5c0-9.1,7.4-16.5,16.5-16.5c9.1,0,16.5,7.4,16.5,16.5C107.5,33.3,100.1,40.7,91.1,40.7z"/>
	<path d="M99.5,20l-8,3.6v-9.4c0-1.5-2.2-1.4-2.2,0l0,11.3c0,0.8,0.9,1.5,1.7,1l9.4-4.5C101.7,21.3,100.9,19.3,99.5,20z"/>
</g>
</svg>